<svg id="Capa_1" enable-background="new 0 0 512 512" height="512" viewBox="0 0 512 512" width="512" xmlns="http://www.w3.org/2000/svg"><g><path clip-rule="evenodd" d="m0 256c0 210.816 45.184 256 256 256s256-45.184 256-256-45.184-256-256-256-256 45.184-256 256zm149.333 0c0-11.782 9.551-21.333 21.333-21.333h64v-64c0-11.782 9.551-21.333 21.333-21.333s21.333 9.551 21.333 21.333v64h64c11.782 0 21.333 9.551 21.333 21.333s-9.551 21.333-21.333 21.333h-64v64c0 11.782-9.551 21.333-21.333 21.333s-21.333-9.551-21.333-21.333v-64h-64c-11.781 0-21.333-9.551-21.333-21.333z" fill="rgb(0,0,0)" fill-rule="evenodd"/></g></svg>