<svg fill="none" height="512" viewBox="0 0 24 24" width="512" xmlns="http://www.w3.org/2000/svg"><g fill="rgb(0,0,0)"><path clip-rule="evenodd" d="m16.1019 1.50259c.9841.87477 1.6632 2.10464 1.8477 3.63878.0163.13548.1182.24646.2523.27147 2.7701.51647 4.3004 1.58965 5.0832 3.60923.0474.12227.0044.26075-.1012.33849-3.796 2.79404-7.5189 4.13944-11.1839 4.13944-3.66498 0-7.38792-1.3454-11.183916-4.13944-.105614-.07774-.148582-.21622-.101186-.33849.782832-2.01958 2.313152-3.09276 5.083182-3.60923.13414-.02501.23604-.13599.25233-.27147.18444-1.53414.86361-2.76401 1.84773-3.63878 1.14303-1.016026 2.63876-1.50259 4.10186-1.50259s2.9588.486564 4.1019 1.50259zm-4.1019 3.49741c-1.3127 0-2.48848.02959-3.54044.09925-.1957.01296-.35334-.16093-.30188-.35018.20447-.75199.59205-1.32755 1.06918-1.75166.73197-.65064 1.73624-.99741 2.77314-.99741s2.0412.34677 2.7731.99741c.4772.42411.8648.99967 1.0692 1.75166.0515.18925-.1062.36314-.3019.35018-1.0519-.06966-2.2277-.09925-3.5404-.09925z" fill-rule="evenodd"/><path d="m.575026 11.6395c-.187043-.127-.443446-.0134-.465246.2116-.0768373.7932-.10978 1.6732-.10978 2.6489 0 7.8232 2.118 9.5 12 9.5s12-1.6768 12-9.5c0-.9757-.0329-1.8557-.1098-2.6489-.0218-.225-.2782-.3386-.4652-.2116-3.7511 2.5466-7.5634 3.8605-11.425 3.8605-3.86159 0-7.67387-1.3139-11.424974-3.8605z"/></g></svg>