<svg id="Capa_1" enable-background="new 0 0 512 512" height="512" viewBox="0 0 512 512" width="512" xmlns="http://www.w3.org/2000/svg"><g><path clip-rule="evenodd" d="m0 256c0 210.816 45.184 256 256 256s256-45.184 256-256-45.184-256-256-256-256 45.184-256 256zm180.576-75.425c8.331-8.331 21.839-8.331 30.17 0l45.256 45.256 45.254-45.254c8.331-8.331 21.837-8.331 30.17 0 8.331 8.331 8.331 21.839 0 30.17l-45.254 45.253 45.254 45.254c8.331 8.331 8.331 21.839 0 30.17s-21.839 8.331-30.17 0l-45.254-45.254-45.256 45.257c-8.331 8.331-21.839 8.331-30.17 0s-8.331-21.839 0-30.17l45.257-45.257-45.256-45.256c-8.332-8.331-8.332-21.838-.001-30.169z" fill="rgb(0,0,0)" fill-rule="evenodd"/></g></svg>