<svg fill="none" height="512" viewBox="0 0 20 24" width="512" xmlns="http://www.w3.org/2000/svg"><g fill="rgb(0,0,0)"><path d="m8.88889 8.72727c7.32001 0 8.88891-.77018 8.88891-4.36363 0-3.593458-1.5689-4.36363991-8.88891-4.36364-7.32-.00000009-8.88888996.770182-8.88889 4.36364-.00000004 3.59345 1.56889 4.36363 8.88889 4.36363z"/><path d="m6.66667 19.6364c0 3.5934.39222 4.3636 2.22222 4.3636 1.83001 0 2.22221-.7702 2.22221-4.3636 0-3.5935-.3922-4.3637-2.22221-4.3637-1.83 0-2.22222.7702-2.22222 4.3637z"/><path clip-rule="evenodd" d="m16.7157 3.27273c1.8139 0 3.2843 1.41851 3.2843 3.16834v2.33392c0 1.61441-1.2747 3.14891-2.9216 3.14891h-6.1373c-.6616 0-.97382.5116-.97382 1.0497v2.3339c0 .5833-.49014 1.0561-1.09475 1.0561s-1.09475-.4728-1.09475-1.0561v-2.3339c0-1.6144 1.04343-3.14896 2.92152-3.14896h6.1373c.6999 0 .9739-.51151.9739-1.04965v-2.33392c0-.58328-.5883-.44107-1.0948-1.05612-.6757 0-1.1601-2.11222 0-2.11222z" fill-rule="evenodd"/></g></svg>