<svg id="Capa_1" enable-background="new 0 0 512 512" height="512" viewBox="0 0 512 512" width="512" xmlns="http://www.w3.org/2000/svg"><g><path clip-rule="evenodd" d="m0 256c0 210.816 45.184 256 256 256s256-45.184 256-256-45.184-256-256-256-256 45.184-256 256zm356.418-79.085c8.331 8.331 8.331 21.839 0 30.17l-106.667 106.666c-8.331 8.331-21.839 8.331-30.17 0l-53.334-53.333c-8.331-8.331-8.331-21.839 0-30.17s21.839-8.331 30.17 0l38.248 38.249 91.582-91.582c8.332-8.331 21.84-8.331 30.171 0z" fill="rgb(0,0,0)" fill-rule="evenodd"/></g></svg>